<?xml version="1.0" standalone="no"?>
<!DOCTYPE svg PUBLIC "-//W3C//DTD SVG 20010904//EN"
 "http://www.w3.org/TR/2001/REC-SVG-20010904/DTD/svg10.dtd">
<svg version="1.0" xmlns="http://www.w3.org/2000/svg"
 width="1250.000000pt" height="1250.000000pt" viewBox="0 0 1250.000000 1250.000000"
 preserveAspectRatio="xMidYMid meet">
<metadata>
Created by potrace 1.14, written by Peter Selinger 2001-2017
</metadata>
<g transform="translate(0.000000,1250.000000) scale(0.100000,-0.100000)"
fill="#000000" stroke="none">
<path d="M6944 12293 c-18 -2 -38 -12 -46 -21 -19 -22 -76 -153 -83 -189 -13
-73 -17 -91 -25 -128 -5 -22 -8 -103 -6 -180 3 -128 6 -154 20 -203 3 -9 7
-33 10 -52 3 -19 8 -46 11 -60 3 -17 -3 -33 -24 -55 -56 -60 -83 -133 -83
-221 -1 -34 37 -106 75 -146 35 -36 128 -100 176 -121 84 -37 254 -163 306
-227 65 -80 185 -289 190 -330 2 -17 7 -34 9 -39 3 -5 8 -26 12 -47 3 -22 23
-106 44 -189 21 -82 41 -168 45 -190 4 -22 9 -50 11 -62 8 -45 13 -69 28 -140
19 -89 27 -182 31 -397 4 -166 4 -169 -22 -215 -28 -50 -66 -151 -56 -151 3 0
0 -6 -6 -13 -6 -8 -8 -16 -5 -19 3 -4 6 -49 6 -101 l0 -95 -48 -43 c-26 -24
-55 -52 -64 -62 -9 -9 -52 -41 -96 -70 -43 -29 -113 -76 -154 -103 -41 -28
-106 -68 -144 -89 l-69 -39 -15 23 c-15 22 -101 82 -189 132 -40 23 -54 39
-34 39 5 0 19 16 32 36 25 41 32 100 15 121 -32 38 -144 118 -238 170 l-106
59 20 32 c29 46 26 106 -7 142 -39 43 -141 87 -303 130 -48 12 -49 23 -7 90
19 31 37 70 36 77 -1 2 11 29 25 60 14 32 27 65 29 73 2 8 13 42 25 75 18 52
43 146 56 210 2 11 15 65 29 120 29 114 31 123 39 185 3 25 9 56 12 70 3 14 5
82 6 152 0 95 -4 140 -17 179 -44 131 -125 179 -218 129 -32 -18 -100 -82
-167 -160 -12 -14 -49 -54 -83 -90 -35 -36 -75 -82 -90 -102 -24 -33 -521
-538 -529 -538 -2 0 -4 37 -5 83 -1 83 -26 172 -58 203 -23 23 -87 41 -130 36
-54 -5 -101 -31 -179 -97 l-66 -56 -105 -4 -105 -5 0 25 c0 14 -7 43 -16 65
-43 108 -229 129 -394 45 -47 -24 -55 -24 -51 -1 1 5 4 26 6 45 5 47 13 90 31
176 8 39 17 81 20 95 16 79 62 200 76 200 5 0 13 11 18 25 5 14 14 25 19 25 6
0 28 25 51 54 22 30 51 66 64 79 104 104 120 335 34 498 -37 71 -106 143 -168
174 -37 19 -53 35 -75 77 -76 145 -227 359 -320 453 -97 97 -184 145 -265 145
-87 0 -112 -29 -70 -83 11 -14 20 -29 20 -33 0 -4 15 -39 34 -78 46 -99 104
-252 121 -321 1 -5 7 -21 12 -35 6 -14 14 -43 17 -66 7 -39 6 -42 -25 -55 -56
-23 -146 -124 -195 -219 -15 -30 -29 -57 -29 -60 -19 -90 -57 -161 -127 -234
-7 -8 -20 -24 -28 -36 -8 -12 -23 -31 -32 -42 -10 -12 -18 -24 -18 -27 0 -3
-10 -17 -23 -31 -26 -28 -111 -168 -151 -248 -22 -44 -85 -230 -101 -297 -3
-11 -16 -65 -30 -120 -34 -134 -34 -134 -40 -176 -3 -20 -9 -50 -14 -67 -5
-17 -7 -33 -4 -35 2 -3 0 -14 -5 -24 -6 -10 -13 -35 -16 -55 -7 -45 -25 -128
-31 -146 -4 -10 -9 -10 -26 -2 -24 14 -93 16 -127 6 -20 -7 -21 -5 -12 19 5
14 12 40 15 58 6 36 13 70 21 107 12 51 9 301 -3 363 -17 82 -29 107 -64 136
-37 29 -103 35 -172 14 -64 -19 -96 -44 -210 -161 -116 -119 -117 -120 -117
-126 0 -3 -24 -40 -52 -81 -71 -102 -86 -126 -98 -152 -5 -13 -13 -23 -18 -23
-5 0 -26 -38 -48 -85 -21 -46 -42 -84 -45 -85 -4 0 -26 26 -50 57 -98 127
-132 156 -200 167 -46 7 -99 -26 -110 -67 -6 -23 -5 -324 1 -377 6 -47 32
-205 34 -209 2 -3 7 -26 10 -51 3 -25 8 -56 11 -70 3 -14 8 -45 11 -70 9 -80
17 -118 39 -190 1 -3 7 -18 13 -33 9 -22 9 -33 -2 -50 -12 -19 -24 -56 -31
-92 -1 -5 -3 -12 -4 -15 -1 -3 -4 -48 -6 -100 -2 -52 -7 -124 -12 -160 -4 -36
-8 -144 -8 -240 l0 -175 -39 -37 c-21 -21 -35 -38 -32 -38 4 0 -11 -24 -33
-52 -55 -75 -156 -279 -180 -364 -24 -85 -7 -113 66 -114 l42 0 -14 -32 c-40
-97 -53 -354 -24 -476 38 -158 78 -246 120 -261 15 -5 39 -8 52 -6 20 4 28 -5
62 -76 22 -44 48 -89 57 -99 18 -19 17 -20 -19 -44 -49 -31 -133 -103 -170
-147 -29 -34 -98 -145 -101 -164 -3 -13 -22 -76 -29 -95 -4 -8 -7 -18 -8 -22
-2 -5 -3 -9 -5 -10 -11 -14 -4 -40 12 -49 23 -12 86 -14 119 -4 20 7 20 6 5
-18 -9 -13 -19 -33 -21 -43 -2 -11 -11 -44 -19 -74 -8 -30 -17 -68 -20 -85 -3
-16 -8 -41 -11 -55 -28 -140 -20 -259 20 -280 13 -7 38 -11 57 -8 l34 3 -1
-55 c-1 -30 -5 -66 -9 -80 -13 -39 -38 -94 -51 -110 -22 -27 -75 -131 -75
-146 0 -8 -5 -14 -12 -14 -6 0 -9 -3 -5 -6 3 -4 0 -19 -9 -35 -8 -16 -12 -29
-9 -29 3 0 -1 -16 -10 -36 -12 -29 -39 -157 -58 -274 -6 -37 7 -64 34 -70 26
-7 28 -25 15 -101 -12 -64 -16 -113 -15 -189 0 -69 5 -155 9 -155 1 0 4 -19 6
-42 4 -34 2 -43 -10 -43 -9 0 -16 -9 -16 -19 0 -11 -9 -40 -19 -64 -11 -25
-17 -48 -14 -51 3 -3 1 -11 -4 -18 -26 -33 -56 -228 -57 -380 -1 -79 2 -100
16 -114 16 -17 60 -21 96 -10 16 6 19 0 20 -40 1 -25 11 -71 23 -102 14 -40
21 -88 23 -157 3 -94 14 -161 35 -216 5 -14 10 -62 12 -109 2 -47 7 -87 10
-90 4 -3 9 -21 12 -40 9 -61 65 -208 87 -230 14 -14 50 -70 50 -79 0 -13 109
-111 124 -111 15 0 115 -69 167 -115 19 -17 59 -40 87 -50 64 -23 137 -77 177
-132 37 -51 70 -70 113 -67 78 5 98 75 77 263 -7 60 -6 64 11 56 29 -12 88
-22 110 -19 10 1 35 5 55 8 33 5 40 1 92 -49 31 -30 68 -76 83 -103 38 -66 87
-112 119 -112 45 0 82 26 95 67 6 21 14 45 17 53 3 8 5 29 4 45 -1 17 -3 76
-5 131 -2 56 -6 106 -10 112 -4 6 8 7 35 1 67 -15 121 -60 181 -151 31 -46 65
-92 77 -102 30 -27 108 -26 153 2 18 12 30 22 26 22 -4 0 0 17 8 37 20 48 24
206 7 295 -7 37 -23 85 -37 106 -18 30 -22 42 -14 57 6 10 10 48 10 84 0 69
-2 79 -20 124 -7 16 -12 32 -12 37 0 5 -6 15 -13 22 -6 7 -25 33 -41 57 -38
59 -96 114 -135 131 l-33 13 84 29 c45 15 117 35 158 44 41 8 116 30 165 49
50 18 113 41 142 50 29 9 78 34 110 55 l57 39 28 -26 c38 -36 120 -40 146 -6
16 21 21 22 90 13 41 -5 92 -15 115 -21 23 -6 59 -12 80 -12 35 -1 37 -2 33
-28 -5 -36 -14 -49 -32 -49 -9 0 -39 -24 -68 -52 -156 -157 -256 -246 -298
-267 -68 -34 -120 -88 -155 -161 -31 -65 -45 -101 -41 -110 1 -3 -11 -25 -28
-50 -104 -150 -142 -309 -104 -429 23 -74 49 -101 96 -101 39 0 40 1 168 141
13 14 54 40 91 57 61 30 70 31 101 20 32 -11 44 -35 27 -52 -4 -3 -9 -17 -11
-29 -5 -31 -10 -52 -12 -52 -1 0 -3 -18 -5 -40 -19 -261 -20 -255 48 -255 34
0 44 6 71 37 81 98 162 170 198 177 20 3 47 14 59 24 22 16 28 16 85 2 l60
-15 -9 -30 c-13 -47 -17 -73 -23 -171 -6 -84 -5 -93 15 -113 40 -40 98 -24
169 47 27 27 78 64 113 81 35 18 74 43 86 57 13 14 33 24 49 24 38 0 282 134
384 211 207 156 293 276 364 508 9 29 16 62 16 73 0 10 7 32 15 48 8 16 15 33
14 37 -4 21 4 33 38 59 30 23 35 24 29 8 -12 -29 -17 -237 -6 -253 5 -10 31
-16 72 -19 58 -3 65 -1 93 25 17 16 63 54 102 85 l73 56 41 -16 c36 -14 40
-18 34 -41 -7 -27 -13 -65 -19 -136 -2 -22 -5 -44 -7 -50 -2 -5 0 -29 4 -53 6
-34 13 -45 35 -53 44 -17 88 -2 153 54 70 59 134 108 199 152 42 28 48 29 89
19 25 -6 47 -16 49 -24 3 -7 1 -10 -4 -7 -5 3 -9 -21 -8 -54 3 -128 74 -153
198 -69 32 22 63 40 67 40 5 0 30 13 56 29 42 25 62 29 153 35 194 12 272 28
347 72 44 25 91 89 128 172 12 29 37 58 74 86 31 23 79 59 106 80 51 39 96 84
121 122 19 28 45 190 48 292 0 12 2 22 6 22 14 -2 71 -38 104 -67 35 -31 35
-33 27 -80 -5 -26 -9 -55 -9 -63 0 -8 -3 -26 -6 -40 -12 -54 -18 -80 -18 -87
0 -5 -4 -19 -9 -32 -5 -13 -11 -38 -14 -55 -7 -52 -31 -148 -54 -211 -13 -33
-24 -64 -25 -70 -1 -5 -10 -28 -20 -50 -10 -22 -25 -58 -34 -80 -13 -34 -54
-98 -72 -115 -4 -3 -16 -22 -29 -42 -20 -34 -25 -37 -44 -27 -83 45 -255 -30
-410 -178 -60 -57 -150 -133 -174 -146 -6 -4 -34 7 -63 25 -36 22 -67 33 -105
36 -49 4 -64 0 -128 -33 -197 -102 -296 -160 -352 -210 -63 -56 -71 -61 -83
-57 -7 2 -12 10 -12 17 0 7 -3 15 -8 17 -4 2 -24 24 -45 50 -53 65 -107 74
-245 43 -82 -19 -144 -61 -267 -179 -55 -52 -103 -96 -106 -96 -4 0 -17 14
-30 31 -30 38 -69 59 -111 59 -42 0 -174 -43 -225 -72 -76 -45 -268 -175 -282
-191 -17 -21 -23 -21 -47 1 -58 52 -126 59 -239 24 -77 -24 -211 -96 -264
-142 -39 -34 -35 -36 -118 46 -86 86 -142 108 -433 173 -230 51 -252 54 -435
47 -334 -13 -343 -15 -540 -86 -180 -65 -214 -79 -235 -96 -8 -6 -76 -37 -150
-68 -274 -115 -485 -294 -428 -363 22 -27 67 -43 118 -43 55 0 76 8 130 50 58
46 196 111 237 113 27 1 50 -7 78 -26 72 -49 128 -36 242 55 32 27 65 48 74
48 9 0 36 -20 61 -45 70 -68 128 -64 258 21 57 37 101 40 136 10 16 -14 67
-45 114 -68 57 -30 84 -49 81 -59 -2 -8 -5 -25 -6 -39 -1 -14 -3 -28 -4 -32 0
-5 -17 -5 -35 -2 -69 10 -174 -41 -206 -100 -20 -39 -43 -40 -107 -7 -100 52
-151 46 -249 -30 l-53 -41 -38 18 c-21 10 -47 26 -57 36 -28 26 -83 41 -126
35 -21 -3 -69 -23 -108 -46 -67 -39 -72 -40 -119 -31 -26 5 -96 25 -155 45
-141 46 -203 41 -232 -19 -36 -76 17 -188 137 -288 105 -87 277 -151 497 -184
19 -3 125 -23 235 -45 179 -36 215 -41 346 -40 133 0 203 4 297 17 19 2 91 18
160 35 117 28 180 41 257 55 111 19 143 32 263 106 37 22 80 42 97 45 16 2 39
15 50 28 11 13 38 28 60 34 57 15 109 54 130 96 15 34 20 36 48 32 18 -3 118
-13 222 -22 288 -25 751 -16 975 18 91 14 190 28 220 31 79 8 207 25 265 36
28 5 70 12 95 15 45 5 488 79 545 90 58 12 301 56 412 76 157 27 462 124 633
200 47 21 119 49 160 62 106 36 580 270 660 327 16 11 34 20 42 20 19 1 76 47
131 106 26 29 73 79 105 111 95 99 130 143 207 258 67 101 115 187 115 207 0
4 20 49 44 100 37 80 57 128 61 148 0 3 6 21 13 40 6 19 14 50 17 69 3 19 9
39 12 45 4 5 8 19 9 30 1 12 5 35 8 51 3 17 8 44 11 60 3 17 7 41 10 54 2 14
7 46 10 72 3 27 9 68 13 91 9 50 6 482 -3 531 -3 17 -8 59 -11 92 -3 33 -9 71
-14 85 -5 14 -11 43 -14 65 -3 22 -9 58 -15 80 -5 22 -10 40 -10 40 1 0 -13
41 -29 85 -19 55 -19 57 -1 81 10 14 33 61 50 105 35 87 39 139 13 193 -17 35
-108 169 -143 209 -16 18 -18 28 -10 55 10 34 14 148 6 182 -30 130 -56 196
-88 226 -35 32 -115 60 -259 89 -57 12 -105 22 -106 23 -1 1 -4 27 -8 57 -8
83 -17 120 -41 176 -18 41 -31 55 -67 72 -57 28 -132 42 -224 42 -67 0 -74 2
-74 20 0 35 -32 114 -54 134 -44 39 -221 117 -279 123 -43 4 -58 10 -62 24
-13 40 -83 115 -130 138 -63 31 -171 39 -235 17 -47 -16 -70 -9 -70 23 0 9
-14 36 -30 61 -17 25 -38 57 -48 72 -23 38 -65 56 -179 78 -94 18 -98 20 -140
66 -25 27 -43 56 -43 70 0 12 -5 35 -10 50 -12 31 3 79 60 188 92 174 247 315
447 407 34 16 74 31 88 35 14 3 25 10 25 14 0 27 291 52 365 31 75 -20 186
-92 224 -144 l34 -49 3 -156 c1 -87 4 -164 7 -172 10 -37 30 -77 47 -95 20
-22 27 -91 36 -345 7 -218 8 -228 25 -245 19 -20 67 -26 93 -13 23 12 136 129
136 141 0 4 5 5 12 1 6 -4 8 -3 5 3 -4 6 2 21 13 33 11 12 17 26 15 30 -3 4 2
13 10 20 8 7 15 19 15 27 0 8 5 11 12 7 7 -4 8 -3 4 5 -4 6 -2 19 6 28 11 14
11 16 -2 9 -13 -7 -13 -6 0 6 8 7 15 19 16 26 2 28 4 33 13 28 5 -4 7 3 4 15
-4 12 0 25 8 30 11 7 11 9 1 9 -8 0 -10 5 -5 13 4 6 8 15 9 20 1 4 2 8 4 10 1
1 3 20 4 42 2 22 4 42 6 45 1 3 2 19 1 35 0 22 8 37 34 58 39 33 41 32 117
-35 29 -26 62 -55 74 -65 69 -59 143 -176 199 -313 14 -36 39 -93 55 -128 28
-58 29 -69 28 -175 -1 -61 2 -119 7 -127 5 -8 10 -21 12 -29 1 -8 15 -42 32
-76 20 -40 32 -83 36 -125 3 -34 8 -67 11 -71 3 -5 0 -9 -6 -9 -6 0 -9 -4 -6
-9 7 -11 13 -92 22 -281 7 -148 12 -159 70 -160 45 0 77 30 115 107 19 38 37
70 42 71 4 2 5 8 1 13 -3 5 -1 9 3 9 5 0 9 10 10 22 1 11 7 24 13 28 10 6 17
25 19 53 1 5 5 6 9 3 5 -3 9 0 9 7 0 7 10 41 22 75 12 35 24 82 27 104 3 21 7
47 9 56 2 9 4 26 5 37 0 11 16 37 36 58 l35 38 59 -51 c42 -36 74 -78 117
-151 77 -134 83 -146 89 -169 2 -11 6 -30 9 -43 11 -45 25 -123 30 -167 7 -67
14 -110 20 -130 3 -10 -6 -38 -23 -66 -32 -56 -46 -86 -44 -96 1 -5 -2 -8 -7
-8 -7 0 -13 -24 -22 -87 -1 -5 -5 -18 -10 -31 -14 -37 -20 -81 -24 -182 -2
-52 -11 -115 -20 -140 -16 -44 -60 -211 -68 -260 -3 -14 -10 -45 -17 -70 -7
-25 -12 -46 -11 -47 0 -2 -5 -20 -13 -40 -68 -190 -57 -238 53 -238 47 0 63 5
96 30 53 40 225 211 225 223 0 6 6 17 13 24 25 26 103 144 125 190 28 56 33
61 96 81 78 27 142 73 165 120 16 33 20 61 19 132 -1 55 4 102 12 120 7 17 14
32 15 35 1 3 9 23 19 45 21 46 74 206 81 244 10 54 14 71 18 79 3 4 8 34 12
67 3 32 9 63 12 68 2 4 6 54 9 110 3 95 9 156 20 217 6 32 6 752 0 850 -3 41
-8 86 -12 100 -3 14 -8 124 -10 245 -4 344 -5 367 -16 420 -6 28 -11 75 -13
105 -3 66 -15 162 -21 172 -3 4 -7 33 -9 65 -5 54 -7 68 -21 133 -3 14 -7 43
-9 65 -2 22 -8 60 -15 85 -6 25 -13 59 -16 75 -3 17 -7 39 -9 50 -2 11 -6 27
-9 35 -3 8 -7 29 -9 45 -5 33 -60 255 -81 325 -8 25 -19 65 -26 90 -7 25 -21
64 -31 87 -11 24 -19 47 -19 51 0 5 -6 22 -14 38 -8 16 -37 85 -64 154 -28 69
-58 143 -68 165 -10 22 -17 43 -16 48 1 4 -3 7 -8 7 -6 0 -10 8 -10 18 0 10
-5 23 -12 30 -7 7 -9 12 -5 12 4 0 -2 19 -14 41 -11 23 -22 49 -24 58 -1 9
-16 45 -33 81 -16 36 -37 85 -45 110 -86 251 -153 398 -252 545 -36 55 -71
107 -78 116 -31 39 -57 79 -57 84 0 8 -138 214 -154 231 -6 7 -27 31 -46 55
-38 48 -106 124 -160 180 -19 19 -64 69 -100 110 -36 41 -76 83 -90 94 -13 11
-36 31 -50 45 -73 71 -400 287 -495 327 -33 14 -76 35 -95 46 -19 12 -42 27
-52 32 -9 6 -66 40 -125 76 -131 80 -338 182 -413 202 -30 8 -84 20 -119 27
-36 6 -108 27 -160 47 -170 62 -221 75 -506 137 -66 14 -140 31 -165 36 -26 7
-55 22 -70 38 -97 105 -251 178 -355 170 -39 -3 -45 0 -79 41 -35 42 -63 95
-71 133 -2 9 -9 26 -15 37 -6 12 -8 21 -6 21 3 0 -3 20 -14 45 -11 25 -17 45
-15 45 3 0 0 11 -5 26 -10 25 -20 83 -25 139 -1 17 -5 37 -8 45 -3 8 -8 38
-11 65 -10 80 -12 87 -27 95 -22 11 -61 17 -95 13z m-4639 -4595 c32 -30 47
-52 48 -70 1 -16 5 -28 9 -28 4 0 3 -11 -2 -24 -5 -13 -6 -27 -2 -31 3 -3 -2
-3 -11 1 -10 3 -17 3 -16 -2 4 -24 -2 -36 -17 -30 -8 3 -12 2 -9 -4 3 -6 0
-10 -8 -10 -8 0 -17 -6 -20 -13 -5 -15 -29 -15 -62 -2 -24 10 -80 55 -68 55 4
0 2 4 -6 9 -10 6 -15 28 -15 63 -1 60 25 107 59 108 11 0 27 5 35 10 25 16 36
12 85 -32z"/>
</g>
</svg>
